<?xml version="1.0" encoding="iso-8859-1"?>
<!-- Generator: Adobe Illustrator 18.1.1, SVG Export Plug-In . SVG Version: 6.00 Build 0)  -->
<svg version="1.1" id="Layer_1" xmlns="http://www.w3.org/2000/svg" xmlns:xlink="http://www.w3.org/1999/xlink" x="0px" y="0px"
	 viewBox="0 0 104.721 105.111" style="enable-background:new 0 0 104.721 105.111;" xml:space="preserve">
<g>
	<g>
		<path style="fill:none;stroke:#5F2F7D;stroke-width:1.5;stroke-linejoin:round;stroke-miterlimit:10;" d="M41.583,9.416
			c0.978-2.84,2.046-5.297,3.185-7.307"/>
		<path style="fill:none;stroke:#5F2F7D;stroke-width:1.5;stroke-linejoin:round;stroke-miterlimit:10;" d="M35.647,44.158
			c0.421-7.178,1.195-13.889,2.253-19.891"/>
		<path style="fill:none;stroke:#5F2F7D;stroke-width:1.5;stroke-linejoin:round;stroke-miterlimit:10;" d="M39.556,97.188
			c-2.14-8.651-3.604-19.508-4.093-31.5"/>
		<path style="fill:none;stroke:#5F2F7D;stroke-width:1.5;stroke-linejoin:round;stroke-miterlimit:10;" d="M59.476,1.719
			c1.834,3.115,3.487,7.376,4.888,12.526"/>
		<path style="fill:none;stroke:#5F2F7D;stroke-width:1.5;stroke-linejoin:round;stroke-miterlimit:10;" d="M13.041,52.851
			c0.605-14.716,4.582-28.01,10.748-38.046"/>
		<path style="fill:none;stroke:#5F2F7D;stroke-width:1.5;stroke-linejoin:round;stroke-miterlimit:10;" d="M91.415,52.52
			c0.063,1.407,0.095,2.827,0.095,4.258c0,11.051-1.9,21.415-5.221,30.348"/>
		<path style="fill:none;stroke:#5F2F7D;stroke-width:1.5;stroke-linejoin:round;stroke-miterlimit:10;" d="M88.423,33.083
			c0.918,3.366,1.647,6.887,2.165,10.53"/>
		<path style="fill:none;stroke:#5F2F7D;stroke-width:1.5;stroke-linejoin:round;stroke-miterlimit:10;" d="M88.425,88.362
			c-0.703,0.336-1.417,0.662-2.143,0.979"/>
		<path style="fill:none;stroke:#5F2F7D;stroke-width:1.5;stroke-linejoin:round;stroke-miterlimit:10;" d="M47.83,17.605
			c1.455-0.067,2.924-0.101,4.405-0.101c3.296,0,6.53,0.169,9.684,0.494"/>
		<path style="fill:none;stroke:#5F2F7D;stroke-width:1.5;stroke-linejoin:round;stroke-miterlimit:10;" d="M3.685,33.081
			c5.704-4.857,13.119-8.831,21.666-11.55"/>
		<path style="fill:none;stroke:#5F2F7D;stroke-width:1.5;stroke-linejoin:round;stroke-miterlimit:10;" d="M41.582,95.453
			c-2.655-0.302-5.25-0.716-7.775-1.232"/>
		<path style="fill:none;stroke:#5F2F7D;stroke-width:1.5;stroke-linejoin:round;stroke-miterlimit:10;" d="M3.653,46.561
			c9.073-3.34,22.485-5.716,37.901-6.476"/>
		<path style="fill:none;stroke:#5F2F7D;stroke-width:1.5;stroke-linejoin:round;stroke-miterlimit:10;" d="M55.849,73.702
			c-1.196,0.02-2.401,0.029-3.614,0.029c-7.041,0-13.802-0.333-20.092-0.945"/>
		<path style="fill:none;stroke:#5F2F7D;stroke-width:1.5;stroke-linejoin:round;stroke-miterlimit:10;" d="M100.052,67.271
			c-3.906,1.379-8.565,2.584-13.803,3.569"/>
		<path style="fill:none;stroke:#5F2F7D;stroke-width:1.5;stroke-linejoin:round;stroke-miterlimit:10;" d="M79.659,41.639
			c9.268,1.305,17.176,3.25,22.973,5.627"/>
		
			<line style="fill:none;stroke:#5F2F7D;stroke-width:1.5;stroke-linejoin:round;stroke-miterlimit:10;" x1="52.235" y1="70.463" x2="52.235" y2="84.323"/>
		
			<line style="fill:none;stroke:#5F2F7D;stroke-width:1.5;stroke-linejoin:round;stroke-miterlimit:10;" x1="52.235" y1="0.75" x2="52.235" y2="22.765"/>
		
			<line style="fill:none;stroke:#5F2F7D;stroke-width:1.5;stroke-linejoin:round;stroke-miterlimit:10;" x1="75.602" y1="56.778" x2="98.408" y2="56.778"/>
		
			<line style="fill:none;stroke:#5F2F7D;stroke-width:1.5;stroke-linejoin:round;stroke-miterlimit:10;" x1="18.415" y1="56.778" x2="26.145" y2="56.778"/>
	</g>
	<polygon style="fill:none;stroke:#5F2F7D;stroke-width:1.5;stroke-linejoin:round;stroke-miterlimit:10;" points="30.145,66.471 
		44.978,64.286 59.658,77.001 32.424,104.361 35.34,82.876 	"/>
	<polygon style="fill:none;stroke:#5F2F7D;stroke-width:1.5;stroke-linejoin:round;stroke-miterlimit:10;" points="68.606,62.226 
		86.248,70.142 86.285,92.23 103.971,60.164 85.609,48.987 	"/>
	<polygon style="fill:none;stroke:#5F2F7D;stroke-width:1.5;stroke-linejoin:round;stroke-miterlimit:10;" points="74.938,46.171 
		88.685,43.684 103.495,51.137 99.119,31.527 88.171,33.462 	"/>
	<polygon style="fill:none;stroke:#5F2F7D;stroke-width:1.5;stroke-linejoin:round;stroke-miterlimit:10;" points="36.722,3.117 
		54.437,26.07 72.196,4.91 55.632,0.75 	"/>
	<polygon style="fill:none;stroke:#5F2F7D;stroke-width:1.5;stroke-linejoin:round;stroke-miterlimit:10;" points="0.75,40.755 
		6.993,21.608 22.497,12.468 28.467,31.424 37.667,24.029 48.656,35.19 25.346,51.261 26.904,62.024 10.55,51.261 7.71,54.675 	"/>
	<polygon style="fill:none;stroke:#5F2F7D;stroke-width:1.5;stroke-linejoin:round;stroke-miterlimit:10;" points="87.986,25.982 
		93.883,22.765 93.883,30.038 	"/>
</g>
</svg>
