<?xml version="1.0" encoding="iso-8859-1"?>
<!-- Generator: Adobe Illustrator 18.1.1, SVG Export Plug-In . SVG Version: 6.00 Build 0)  -->
<svg version="1.1" id="Layer_1" xmlns="http://www.w3.org/2000/svg" xmlns:xlink="http://www.w3.org/1999/xlink" x="0px" y="0px"
	 viewBox="0 0 123.07 101.385" style="enable-background:new 0 0 123.07 101.385;" xml:space="preserve">
<g>
	<path style="fill:none;stroke:#5F2F7D;stroke-width:1.5;stroke-linecap:round;stroke-linejoin:round;stroke-miterlimit:10;" d="
		M14.579,28.922c-5.462,0-9.89-4.428-9.89-9.89s4.428-9.89,9.89-9.89H43.42v19.78H14.579z"/>
	
		<polyline style="fill:none;stroke:#5F2F7D;stroke-width:1.5;stroke-linecap:round;stroke-linejoin:round;stroke-miterlimit:10;" points="
		43.42,14.481 100.759,14.481 108.463,6.636 116.362,14.481 106.646,24.021 43.42,24.021 	"/>
	
		<polygon style="fill:none;stroke:#5F2F7D;stroke-width:1.5;stroke-linecap:round;stroke-linejoin:round;stroke-miterlimit:10;" points="
		116.696,14.368 108.531,6.429 110.387,0.75 122.32,12.354 	"/>
	
		<polygon style="fill:none;stroke:#5F2F7D;stroke-width:1.5;stroke-linecap:round;stroke-linejoin:round;stroke-miterlimit:10;" points="
		113.364,100.635 39.759,100.635 39.759,43.146 113.364,43.146 122.32,61.774 122.32,81.029 	"/>
	<path style="fill:none;stroke:#5F2F7D;stroke-width:1.5;stroke-linecap:round;stroke-linejoin:round;stroke-miterlimit:10;" d="
		M59.64,64.358"/>
	
		<polyline style="fill:none;stroke:#5F2F7D;stroke-width:1.5;stroke-linecap:round;stroke-linejoin:round;stroke-miterlimit:10;" points="
		59.64,64.568 59.64,53.02 103.331,53.02 103.331,90.761 59.64,90.761 59.64,79.212 	"/>
	
		<rect x="48.395" y="64.569" style="fill:none;stroke:#5F2F7D;stroke-width:1.5;stroke-linecap:round;stroke-linejoin:round;stroke-miterlimit:10;" width="22.182" height="14.643"/>
	
		<polygon style="fill:none;stroke:#5F2F7D;stroke-width:1.5;stroke-linecap:round;stroke-linejoin:round;stroke-miterlimit:10;" points="
		18.232,53.305 18.426,90.313 1.034,98.945 0.75,44.856 	"/>
	
		<rect x="30.925" y="55.086" style="fill:none;stroke:#5F2F7D;stroke-width:1.5;stroke-linecap:round;stroke-linejoin:round;stroke-miterlimit:10;" width="8.834" height="33.629"/>
	
		<rect x="24.08" y="62.967" style="fill:none;stroke:#5F2F7D;stroke-width:1.5;stroke-linecap:round;stroke-linejoin:round;stroke-miterlimit:10;" width="6.911" height="17.867"/>
	
		<rect x="18.426" y="56.446" style="fill:none;stroke:#5F2F7D;stroke-width:1.5;stroke-linecap:round;stroke-linejoin:round;stroke-miterlimit:10;" width="5.654" height="30.909"/>
</g>
<polygon style="fill:none;stroke:#5F2F7D;stroke-width:1.5;stroke-linecap:round;stroke-linejoin:round;stroke-miterlimit:10;" points="
	67.373,42.999 48.395,24.021 56.797,24.021 75.775,42.999 "/>
<polygon style="fill:none;stroke:#5F2F7D;stroke-width:1.5;stroke-linecap:round;stroke-linejoin:round;stroke-miterlimit:10;" points="
	94.754,42.999 75.775,24.021 84.353,24.021 103.331,42.999 "/>
</svg>
